<?xml version="1.0" encoding="UTF-8" standalone="no"?>
<!-- Created with Inkscape (http://www.inkscape.org/) -->

<svg
   width="79.512459mm"
   height="29.341629mm"
   viewBox="0 0 281.73706 103.9664"
   id="svg4183"
   version="1.1"
   inkscape:version="1.1.2 (0a00cf5339, 2022-02-04)"
   sodipodi:docname="side.ii.svg"
   xmlns:inkscape="http://www.inkscape.org/namespaces/inkscape"
   xmlns:sodipodi="http://sodipodi.sourceforge.net/DTD/sodipodi-0.dtd"
   xmlns="http://www.w3.org/2000/svg"
   xmlns:svg="http://www.w3.org/2000/svg"
   xmlns:rdf="http://www.w3.org/1999/02/22-rdf-syntax-ns#"
   xmlns:cc="http://creativecommons.org/ns#"
   xmlns:dc="http://purl.org/dc/elements/1.1/">
  <defs
     id="defs4185" />
  <sodipodi:namedview
     id="base"
     pagecolor="#ffffff"
     bordercolor="#666666"
     borderopacity="1.0"
     inkscape:pageopacity="1"
     inkscape:pageshadow="2"
     inkscape:zoom="1.4"
     inkscape:cx="90.357143"
     inkscape:cy="-139.64286"
     inkscape:document-units="px"
     inkscape:current-layer="layer1"
     showgrid="false"
     fit-margin-bottom="10"
     fit-margin-right="10"
     fit-margin-top="10"
     fit-margin-left="10"
     inkscape:window-width="2486"
     inkscape:window-height="1376"
     inkscape:window-x="0"
     inkscape:window-y="0"
     inkscape:window-maximized="1"
     inkscape:pagecheckerboard="0" />
  <metadata
     id="metadata4188">
    <rdf:RDF>
      <cc:Work
         rdf:about="">
        <dc:format>image/svg+xml</dc:format>
        <dc:type
           rdf:resource="http://purl.org/dc/dcmitype/StillImage" />
      </cc:Work>
    </rdf:RDF>
  </metadata>
  <g
     inkscape:label="Layer 1"
     inkscape:groupmode="layer"
     id="layer1"
     transform="translate(-94.990814,-236.0516)">
    <g
       style="fill:#000000;fill-opacity:1"
       id="g399"
       transform="matrix(1.2499991,0,0,1.2499991,24.753797,-7.9476531)">
      <g
         id="use397"
         transform="translate(83.213997,249.34599)">
        <path
           style="stroke:none"
           d="m 15.625,-12.21875 6.8125,-10.96875 h -7.59375 l -1.21875,2.5 -4.453125,7.171875 0.25,-9.671875 h -7.3125 L 2.46875,-6.8125 2.109375,0 H 9.3125 l -0.28125,-7.53125 0.078125,-3.109375 c 1.9375,3.609375 3.9375,7.125 5.984375,10.640625 L 15.875,0.4375 c 2.40625,-0.21875 4.765625,-0.609375 7.171875,-1.15625 L 23.15625,-1.5 C 20.5,-4.984375 17.953125,-8.5625 15.625,-12.21875 Z m 0,0"
           id="path3304" />
      </g>
    </g>
    <g
       style="fill:#000000;fill-opacity:1"
       id="g403"
       transform="matrix(1.2499991,0,0,1.2499991,24.753797,-7.9476531)">
      <g
         id="use401"
         transform="translate(111.88918,249.34599)">
        <path
           style="stroke:none"
           d="M 15.875,-23.1875 H 7.203125 L 0.171875,0 h 7.03125 L 7.8125,-3.875 10.75,-4.015625 14.265625,-3.9375 14.296875,-3.828125 14.953125,0 H 22.21875 Z M 11.1875,-9.140625 9.171875,-9.171875 11.1875,-16.78125 h 0.421875 l 1.578125,7.609375 z m 0,0"
           id="path3324" />
      </g>
    </g>
    <g
       style="fill:#000000;fill-opacity:1"
       id="g407"
       transform="matrix(1.2499991,0,0,1.2499991,24.753797,-7.9476531)">
      <g
         id="use405"
         transform="translate(139.70412,249.34599)">
        <path
           style="stroke:none"
           d="M 22.46875,-23.1875 H 2.109375 L 2.46875,-6.8125 2.109375,0 H 9.3125 L 9.03125,-7.53125 9.28125,-17.75 h 5.984375 l 0.25,10.9375 L 15.15625,0 h 7.203125 l -0.28125,-7.53125 z m 0,0"
           id="path3308" />
      </g>
    </g>
    <g
       style="fill:#000000;fill-opacity:1"
       id="g411"
       transform="matrix(1.2499991,0,0,1.2499991,24.753797,-7.9476531)">
      <g
         id="use409"
         transform="translate(169.63383,249.34599)">
        <path
           style="stroke:none"
           d="m 9.421875,-23.1875 h -7.3125 L 2.46875,-6.8125 2.109375,0 H 9.3125 L 9.03125,-7.53125 Z m 0,0"
           id="path3312" />
      </g>
    </g>
    <g
       style="fill:#000000;fill-opacity:1"
       id="g415"
       transform="matrix(1.2499991,0,0,1.2499991,24.753797,-7.9476531)">
      <g
         id="use413"
         transform="translate(186.51636,249.34599)">
        <path
           style="stroke:none"
           d="M 18.03125,-23.1875 H 0.71875 l -0.390625,5.234375 0.421875,0.5 4.765625,-0.21875 h 0.46875 L 6.171875,-6.8125 5.8125,0 h 7.15625 L 12.6875,-7.53125 12.875,-17.671875 h 0.421875 l 4.734375,0.21875 0.390625,-5.234375 z m 0,0"
           id="path3316" />
      </g>
    </g>
    <g
       style="fill:#000000;fill-opacity:1"
       id="g419"
       transform="matrix(1.2499991,0,0,1.2499991,24.753797,-7.9476531)">
      <g
         id="use417"
         transform="translate(209.02637,249.34599)">
        <path
           style="stroke:none"
           d="M 15.875,-23.1875 H 7.203125 L 0.171875,0 h 7.03125 L 7.8125,-3.875 10.75,-4.015625 14.265625,-3.9375 14.296875,-3.828125 14.953125,0 H 22.21875 Z M 11.1875,-9.140625 9.171875,-9.171875 11.1875,-16.78125 h 0.421875 l 1.578125,7.609375 z m 0,0"
           id="path3328" />
      </g>
    </g>
    <g
       style="fill:#000000;fill-opacity:1"
       id="g423"
       transform="matrix(1.2499991,0,0,1.2499991,24.753797,-7.9476531)">
      <g
         id="use421"
         transform="translate(236.84129,249.34599)">
        <path
           style="stroke:none"
           d="M 21.609375,-23.1875 H 6.3125 L 5.734375,-18.25 C 4.59375,-8.28125 3.578125,-5.875 0.25,-5.3125 L 1.390625,0.609375 H 3.15625 c 5.015625,0 6.8125,-3.65625 8.640625,-17.53125 l 0.140625,-0.96875 h 2.46875 L 14.65625,-6.8125 14.296875,0 H 21.5 l -0.28125,-7.53125 z m 0,0"
           id="path3320" />
      </g>
    </g>
  </g>
</svg>
